<svg width="1051" height="952" viewBox="0 0 1051 952" fill="none" xmlns="http://www.w3.org/2000/svg">
	<style>
		.path {
			  stroke-dasharray: 2000;
			  stroke-dashoffset: 2000;
			  animation: dash 15s ease infinite;
			}

			@keyframes dash {
			  from {
			    stroke-dashoffset: 2000;
			  }
			  to {
			    stroke-dashoffset: 0;
			  }
			}
	</style>
<path class="path" opacity="0.5" d="M0.977661 942.679C70.4283 942.679 126.715 886.392 126.715 816.942V726.61C126.715 666.692 175.285 618.122 235.203 618.122H339.455C400.735 618.122 449.305 566.223 444.917 505.095C444.917 504.792 444.917 504.489 444.917 504.338C439.47 431.71 399.827 393.278 408.906 319.893C408.906 319.59 408.906 319.439 409.057 319.136C413.142 287.513 439.319 263.455 471.094 261.79C692.307 250.291 769.626 207.471 794.743 165.558C801.552 154.059 827.425 103.975 880.837 83.5488C901.113 75.8321 919.875 74.4703 932.736 74.6216H963.754C1004.91 74.6216 1038.2 41.3337 1038.2 0.177734" stroke="url(#paint0_linear)" stroke-width="5" stroke-miterlimit="10"/>
<path class="path" opacity="0.5" d="M0.977661 948.732C24.4305 951.607 60.1393 952.666 97.0586 937.232C179.522 902.734 173.016 826.323 245.341 769.431C333.857 699.829 401.038 769.582 504.079 700.585C588.509 644.147 557.34 588.012 640.559 528.396C754.192 447.143 850.424 517.199 914.882 438.216C970.11 370.581 958.761 245.146 947.716 205.655C940.302 179.025 933.795 152.092 928.954 124.856C926.533 111.087 924.566 98.3771 923.053 86.8776C920.329 65.5431 935.914 46.4782 957.4 44.8138C957.551 44.8138 957.702 44.8138 957.854 44.8138C976.918 43.3007 987.661 42.5442 998.858 39.3667C1020.19 33.4656 1043.04 13.6442 1050 7.13794" stroke="url(#paint1_linear)" stroke-width="2" stroke-miterlimit="10"/>
<path class="path"  opacity="0.5" d="M1.73535 945.706C19.1358 944.949 46.8253 941.62 74.3635 925.884C165.451 874.137 134.433 758.234 235.81 654.89C277.42 612.373 285.136 629.471 341.423 575.605C433.268 487.392 407.999 446.538 468.523 404.777C561.426 340.774 655.237 413.402 742.845 334.873C777.041 304.157 795.349 264.968 795.349 264.968C814.717 223.207 806.546 203.385 825.611 135.145C839.531 85.0621 847.097 59.7936 869.49 45.7219C892.338 31.3475 910.495 40.2747 951.954 34.9789C992.807 29.8345 1025.49 15.0062 1048.79 1.38843" stroke="url(#paint2_linear)" stroke-width="8" stroke-miterlimit="10"/>
<defs>
<linearGradient id="paint0_linear" x1="1030.5" y1="8.99994" x2="1.00112" y2="943" gradientUnits="userSpaceOnUse">
<stop stop-color="#010305"/>
<stop offset="0.515625" stop-color="#55628A"/>
<stop offset="1" stop-color="#030813"/>
</linearGradient>
<linearGradient id="paint1_linear" x1="1034.5" y1="7.00002" x2="-10.4989" y2="950" gradientUnits="userSpaceOnUse">
<stop stop-color="#010305"/>
<stop offset="0.479167" stop-color="#55628A"/>
<stop offset="1" stop-color="#08101F"/>
</linearGradient>
<linearGradient id="paint2_linear" x1="1029.5" y1="8.00001" x2="2.00101" y2="946" gradientUnits="userSpaceOnUse">
<stop offset="0.078125" stop-color="#010305"/>
<stop offset="0.510417" stop-color="#5F7DFF"/>
<stop offset="0.838542" stop-color="#060D1B"/>
</linearGradient>
</defs>
</svg>
