<?xml version="1.0" encoding="UTF-8"?>
<svg width="751px" height="752px" viewBox="0 0 751 752" version="1.1" xmlns="http://www.w3.org/2000/svg" xmlns:xlink="http://www.w3.org/1999/xlink">
    <!-- Generator: Sketch 52.5 (67469) - http://www.bohemiancoding.com/sketch -->
    <title>dots copy</title>
    <desc>Created with Sketch.</desc>
    <defs>
        <polygon id="path-1" points="0.590116713 1.4620406 25.8764081 1.4620406 25.8764081 26.7567568 0.590116713 26.7567568"></polygon>
        <polygon id="path-3" points="0.349978378 0.357291892 15.5117838 0.357291892 15.5117838 15.5194541 0.349978378 15.5194541"></polygon>
        <polygon id="path-5" points="1.77575676 0.677837838 16.9379189 0.677837838 16.9379189 15.8574811 1.77575676 15.8574811"></polygon>
        <polygon id="path-7" points="0 0.882023332 15.1821983 0.882023332 15.1821983 16.0720703 0 16.0720703"></polygon>
    </defs>
    <g id="Page-1" stroke="none" stroke-width="1" fill="none" fill-rule="evenodd">
        <g id="Austin---Landing" transform="translate(-85.000000, -2813.000000)">
            <g id="Case-Studies" transform="translate(-640.000000, 2490.000000)">
                <g id="Geneva" transform="translate(0.000000, 130.000000)">
                    <g id="dots-copy" transform="translate(1184.979697, 484.979697) rotate(45.000000) translate(-1184.979697, -484.979697) translate(689.979697, 294.114832)">
                        <path d="M352.592335,181.3746 C355.214497,188.563249 362.010714,193.022708 369.235038,193.022708 C371.232876,193.022708 373.284227,192.665951 375.282065,191.952438 L375.282065,191.9346 C384.470335,188.598924 389.197362,178.431357 385.843849,169.24487 C382.506389,160.076222 372.340605,155.331357 363.170173,158.68487 C353.983686,162.038384 349.256659,172.205951 352.592335,181.3746" id="Fill-1" fill="#87B91E"></path>
                        <path d="M161.745843,328.038551 C156.858276,336.511524 159.765843,347.339092 168.238816,352.226659 C171.021519,353.830281 174.053951,354.581254 177.068546,354.581254 C183.186924,354.581254 189.126924,351.406119 192.409086,345.733686 C197.296654,337.260714 194.389086,326.450984 185.916114,321.563416 C177.460978,316.675849 166.633411,319.581632 161.745843,328.038551" id="Fill-3" fill="#F07D00"></path>
                        <path d="M246.368368,251.762708 C249.65053,255.064492 254.217016,256.953519 258.872692,256.953519 C263.528368,256.953519 268.094854,255.064492 271.394854,251.762708 C274.677016,248.48233 276.567827,243.915843 276.567827,239.260168 C276.567827,234.58487 274.677016,230.036222 271.394854,226.736222 C268.094854,223.436222 263.528368,221.563249 258.872692,221.563249 C254.217016,221.563249 249.65053,223.436222 246.368368,226.736222 C243.068368,230.036222 241.177557,234.58487 241.177557,239.260168 C241.177557,243.915843 243.068368,248.48233 246.368368,251.762708" id="Fill-5" fill="#699B19"></path>
                        <path d="M796.915751,345.144681 C800.197914,350.817114 806.137914,353.974411 812.258076,353.974411 C815.270886,353.974411 818.321157,353.207384 821.105643,351.584141 C829.558995,346.696573 832.448724,335.869005 827.543319,327.41387 L827.543319,327.396032 C822.637914,318.940897 811.81213,316.069005 803.355211,320.974411 C794.900076,325.861978 792.029968,336.689546 796.915751,345.144681" id="Fill-7" fill="#DC0000"></path>
                        <path d="M494.832681,135.531892 C490.177005,135.531892 485.610519,137.422703 482.310519,140.722703 C479.028357,144.004865 477.137546,148.571351 477.137546,153.227027 C477.137546,157.882703 479.028357,162.449189 482.310519,165.749189 C485.610519,169.031351 490.177005,170.922162 494.832681,170.922162 C499.488357,170.922162 504.054843,169.031351 507.354843,165.749189 C510.637005,162.449189 512.527816,157.882703 512.527816,153.227027 C512.527816,148.571351 510.637005,144.022703 507.354843,140.722703 C504.054843,137.422703 499.488357,135.531892 494.832681,135.531892" id="Fill-9" fill="#EB5A87"></path>
                        <path d="M603.197546,169.06667 C599.86187,178.253157 604.606735,188.402886 613.791438,191.720724 C615.791059,192.452076 617.824573,192.790995 619.822411,192.790995 C627.064573,192.790995 633.859005,188.313697 636.46333,181.125049 C639.800789,171.938562 635.055924,161.788832 625.869438,158.453157 C616.682951,155.117481 606.515384,159.880184 603.197546,169.06667" id="Fill-11" fill="#7D0A8C"></path>
                        <path d="M717.270876,225.898557 C713.988714,229.198557 712.097903,233.765043 712.097903,238.420719 C712.097903,243.074611 713.988714,247.625043 717.270876,250.925043 C720.570876,254.223259 725.137362,256.11407 729.793038,256.11407 C734.448714,256.11407 739.013416,254.223259 742.295578,250.925043 C745.597362,247.625043 747.486389,243.074611 747.486389,238.420719 C747.486389,233.745422 745.597362,229.198557 742.295578,225.898557 C739.013416,222.598557 734.448714,220.707746 729.793038,220.707746 C725.137362,220.707746 720.570876,222.598557 717.270876,225.898557" id="Fill-13" fill="#37A5D7"></path>
                        <path d="M791.672319,223.169011 C785.766211,217.246849 776.1534,217.229011 770.229454,223.151173 C764.289454,229.073335 764.289454,238.670092 770.2134,244.611876 C773.174481,247.571173 777.06313,249.051714 780.949995,249.051714 C784.822589,249.051714 788.711238,247.589011 791.672319,244.62793 C797.592697,238.705768 797.592697,229.091173 791.690157,223.169011 L791.672319,223.169011 Z" id="Fill-15" fill="#699B19"></path>
                        <path d="M861.525649,364.088822 C863.664405,364.088822 865.860243,363.625038 867.929432,362.643957 C875.528351,359.112065 878.792676,350.068281 875.259,342.4872 C871.711054,334.888281 862.683324,331.622173 855.086189,335.173686 C847.505108,338.705578 844.222946,347.731524 847.772676,355.330443 C850.339541,360.842335 855.817541,364.088822 861.525649,364.088822" id="Fill-17" fill="#7D0A8C"></path>
                        <path d="M826.24187,303.065578 C829.254681,303.065578 832.288897,302.173686 834.946735,300.316768 C841.796465,295.500551 843.473222,286.046497 838.657005,279.180714 C833.858627,272.330984 824.386735,270.654227 817.537005,275.470443 C810.669438,280.268822 809.010519,289.73893 813.808897,296.590443 C816.768195,300.818011 821.46133,303.065578 826.24187,303.065578" id="Fill-19" fill="#EB5A87"></path>
                        <path d="M529.098989,132.017481 C529.562773,132.053157 530.008719,132.070995 530.454665,132.070995 C538.231962,132.070995 544.8498,126.130995 545.545476,118.228832 C546.294665,109.898562 540.122773,102.531535 531.774665,101.800184 C523.426557,101.050995 516.057746,107.222886 515.328178,115.570995 C514.596827,123.919103 520.750881,131.268292 529.098989,132.017481" id="Fill-21" fill="#87B91E"></path>
                        <path d="M672.444568,139.474768 C664.843865,135.942876 655.819703,139.2072 652.286027,146.804335 C648.738081,154.385416 652.020243,163.411362 659.601324,166.961092 C661.688351,167.942173 663.862784,168.388119 666.005108,168.388119 C671.713216,168.388119 677.187649,165.15947 679.774135,159.647578 C683.307811,152.050443 680.025649,143.022714 672.444568,139.474768" id="Fill-23" fill="#2D4B00"></path>
                        <path d="M585.162778,125.203605 C583.0044,133.301984 587.802778,141.614416 595.902941,143.772795 C597.221157,144.129551 598.541157,144.290092 599.827265,144.290092 C606.532508,144.290092 612.668724,139.830632 614.47213,133.052254 C616.646562,124.953876 611.830346,116.641443 603.749805,114.465227 C595.651427,112.306849 587.340778,117.105227 585.162778,125.203605" id="Fill-25" fill="#37A5D7"></path>
                        <path d="M716.270886,177.789551 C713.452508,180.60793 711.829265,184.532254 711.829265,188.510092 C711.829265,192.505768 713.452508,196.430092 716.270886,199.24847 C719.107103,202.066849 723.013589,203.690092 727.011049,203.690092 C730.987103,203.690092 734.893589,202.066849 737.729805,199.24847 C740.548184,196.412254 742.173211,192.505768 742.173211,188.510092 C742.173211,184.532254 740.548184,180.625768 737.729805,177.789551 C734.893589,174.971173 730.987103,173.34793 727.011049,173.34793 C723.013589,173.34793 719.107103,174.971173 716.270886,177.789551" id="Fill-27" fill="#F07D00"></path>
                        <path d="M323.605849,168.461254 C325.764227,168.461254 327.958281,167.995686 330.02747,167.032443 C337.626389,163.466659 340.890714,154.43893 337.340984,146.857849 C333.791254,139.276768 324.74747,135.994605 317.166389,139.546119 C309.585308,143.113686 306.303146,152.139632 309.870714,159.71893 C312.439362,165.230822 317.915578,168.461254 323.605849,168.461254" id="Fill-29" fill="#F07D00"></path>
                        <path d="M262.315395,204.01153 C265.329989,204.01153 268.380259,203.119638 271.038097,201.246665 C277.887827,196.430449 279.528908,186.956773 274.712692,180.108827 C269.896476,173.259097 260.424584,171.618016 253.574854,176.434232 C246.725124,181.250449 245.084043,190.704503 249.900259,197.57207 C252.861341,201.763962 257.552692,204.01153 262.315395,204.01153" id="Fill-31" fill="#DC0000"></path>
                        <path d="M375.514135,132.926676 C377.317541,139.705054 383.451973,144.164514 390.159,144.164514 C391.443324,144.164514 392.763324,144.003973 394.085108,143.647216 C402.181703,141.471 406.980081,133.158568 404.821703,125.078027 C402.645486,116.979649 394.333054,112.18127 386.234676,114.339649 C378.138081,116.515865 373.337919,124.828297 375.514135,132.926676" id="Fill-33" fill="#7D0A8C"></path>
                        <path d="M449.25647,106.045411 C446.438092,108.863789 444.814849,112.770276 444.814849,116.765951 C444.814849,120.761627 446.438092,124.668114 449.25647,127.486492 C452.074849,130.322708 455.981335,131.945951 459.977011,131.945951 C463.972686,131.945951 467.879173,130.322708 470.715389,127.486492 C473.533768,124.668114 475.157011,120.761627 475.157011,116.765951 C475.157011,112.770276 473.533768,108.863789 470.715389,106.045411 C467.879173,103.209195 463.972686,101.603789 459.977011,101.603789 C455.999173,101.603789 452.074849,103.209195 449.25647,106.045411" id="Fill-35" fill="#28055A"></path>
                        <path d="M150.578822,279.697832 C145.780443,286.5654 147.4572,296.019454 154.324768,300.83567 C156.964768,302.671184 159.9972,303.563076 162.993957,303.563076 C167.774497,303.563076 172.483686,301.29767 175.444768,297.089724 C180.243146,290.222157 178.566389,280.750265 171.698822,275.969724 C164.831254,271.151724 155.3772,272.830265 150.578822,279.697832" id="Fill-37" fill="#2D4B00"></path>
                        <path d="M114.172508,342.879276 C110.640616,350.478195 113.940616,359.504141 121.539535,363.036032 C123.608724,363.999276 125.784941,364.445222 127.925481,364.445222 C133.633589,364.445222 139.109805,361.198735 141.696292,355.669005 C145.210346,348.070086 141.928184,339.061978 134.329265,335.530086 C126.730346,331.998195 117.7044,335.280357 114.172508,342.879276" id="Fill-39" fill="#7D0A8C"></path>
                        <path d="M208.105849,249.658378 C212.101524,249.658378 216.008011,248.052973 218.844227,245.216757 C221.662605,242.398378 223.285849,238.491892 223.285849,234.496216 C223.285849,230.500541 221.662605,226.594054 218.844227,223.775676 C216.008011,220.939459 212.101524,219.334054 208.105849,219.334054 C204.110173,219.334054 200.203686,220.939459 197.385308,223.775676 C194.56693,226.594054 192.943686,230.500541 192.943686,234.496216 C192.943686,238.491892 194.56693,242.398378 197.385308,245.216757 C200.203686,248.052973 204.110173,249.658378 208.105849,249.658378" id="Fill-41" fill="#EB5A87"></path>
                        <path d="M898.431065,372.418914 C900.304038,377.556211 905.157714,380.731346 910.311065,380.731346 C911.738092,380.731346 913.200795,380.481616 914.645659,379.964319 C921.192146,377.556211 924.563497,370.314049 922.175011,363.749724 C919.782957,357.1854 912.522957,353.814049 905.97647,356.204319 C899.412146,358.594589 896.040795,365.854589 898.431065,372.418914" id="Fill-43" fill="#F07D00"></path>
                        <path d="M833.608719,247.874595 C836.480611,247.874595 839.352503,246.911351 841.724935,244.913514 C847.076286,240.418378 847.771962,232.444865 843.276827,227.111351 C838.781692,221.76 830.808178,221.064324 825.456827,225.559459 C820.123314,230.054595 819.427638,238.028108 823.922773,243.361622 C826.42007,246.340541 830.003692,247.874595 833.608719,247.874595" id="Fill-45" fill="#7D0A8C"></path>
                        <path d="M877.77467,310.949724 C879.915211,310.949724 882.091427,310.396751 884.089265,309.25513 C890.138076,305.75713 892.205481,298.033346 888.709265,291.988103 C885.23267,285.941076 877.489265,283.871886 871.442238,287.350265 C865.396995,290.846481 863.326022,298.570265 866.822238,304.617292 C869.158995,308.684319 873.4044,310.949724 877.77467,310.949724" id="Fill-47" fill="#699B19"></path>
                        <path d="M705.033405,130.429557 C701.537189,136.476584 703.624216,144.200368 709.671243,147.696584 C711.651243,148.838205 713.827459,149.391178 715.968,149.391178 C720.33827,149.391178 724.583676,147.125773 726.922216,143.058746 C730.416649,137.011719 728.329622,129.287935 722.300432,125.791719 C716.253405,122.313341 708.511784,124.38253 705.033405,130.429557" id="Fill-49" fill="#EB5A87"></path>
                        <path d="M641.886746,116.087935 C643.315557,116.605232 644.776476,116.854962 646.223124,116.854962 C651.376476,116.854962 656.228368,113.679827 658.103124,108.54253 C660.493395,101.978205 657.120259,94.7182054 650.555935,92.3279351 C643.993395,89.9376649 636.749449,93.3268541 634.343124,99.8733405 C631.952854,106.437665 635.340259,113.697665 641.886746,116.087935" id="Fill-51" fill="#DC0000"></path>
                        <path d="M569.697551,96.6448703 L569.679714,96.6448703 C570.428903,96.7697351 571.178092,96.8410865 571.909443,96.8410865 C577.920795,96.8410865 583.256092,92.5421676 584.342416,86.4059514 C585.573227,79.5383838 580.988903,72.9740595 574.121335,71.7432486 C567.23593,70.5302757 560.671605,75.1146 559.458632,81.9821676 C558.227822,88.867573 562.81393,95.4140595 569.697551,96.6448703" id="Fill-53" fill="#28055A"></path>
                        <path d="M770.141514,171.90253 C767.804757,174.257124 766.449081,177.521449 766.449081,180.839286 C766.449081,184.174962 767.804757,187.421449 770.141514,189.776043 C772.513946,192.130638 775.760432,193.486314 779.07827,193.486314 C782.413946,193.486314 785.67827,192.130638 788.032865,189.776043 C790.387459,187.421449 791.725297,184.174962 791.725297,180.839286 C791.725297,177.521449 790.387459,174.257124 788.032865,171.90253 C785.67827,169.547935 782.413946,168.192259 779.07827,168.192259 C775.760432,168.192259 772.496108,169.547935 770.141514,171.90253" id="Fill-55" fill="#87B91E"></path>
                        <path d="M405.857724,86.2992811 C406.945832,92.4354973 412.279346,96.7344162 418.288914,96.7344162 C419.020265,96.7344162 419.771238,96.6809027 420.520427,96.5382 L420.520427,96.5560378 C427.386211,95.325227 431.970535,88.7787405 430.759346,81.8933351 C429.546373,75.0257676 422.982049,70.4414432 416.114481,71.6544162 C409.227292,72.8673892 404.642968,79.4317135 405.857724,86.2992811" id="Fill-57" fill="#2D4B00"></path>
                        <path d="M273.767108,149.284686 C275.907649,149.284686 278.066027,148.731714 280.063865,147.590092 C286.110892,144.111714 288.197919,136.38793 284.701703,130.323065 C281.223324,124.276038 273.499541,122.189011 267.452514,125.685227 C261.387649,129.163605 259.318459,136.887389 262.798622,142.934416 C265.133595,147.001443 269.379,149.284686 273.767108,149.284686" id="Fill-59" fill="#28055A"></path>
                        <path d="M343.763141,116.748114 C345.190168,116.748114 346.65287,116.498384 348.079897,115.981086 C354.626384,113.608654 358.015573,106.348654 355.643141,99.7843297 C353.25287,93.2200054 345.99287,89.8486541 339.428546,92.2210865 C332.882059,94.6113568 329.49287,101.853519 331.883141,108.417843 C333.738276,113.555141 338.590168,116.748114 343.763141,116.748114" id="Fill-61" fill="#37A5D7"></path>
                        <path d="M495.224578,90.0270324 C498.542416,90.0270324 501.806741,88.6713568 504.161335,86.3167622 C506.51593,83.9621676 507.871605,80.7156811 507.871605,77.3800054 C507.871605,74.0621676 506.51593,70.7978432 504.161335,68.4432486 C501.806741,66.0886541 498.542416,64.7508162 495.224578,64.7508162 C491.888903,64.7508162 488.642416,66.0886541 486.287822,68.4432486 C483.933227,70.7978432 482.577551,74.0621676 482.577551,77.3800054 C482.577551,80.7156811 483.933227,83.9621676 486.287822,86.3167622 C488.642416,88.6713568 491.888903,90.0270324 495.224578,90.0270324" id="Fill-63" fill="#F07D00"></path>
                        <path d="M147.86747,245.091714 C150.239903,247.071714 153.111795,248.034957 155.983686,248.034957 C159.58693,248.034957 163.172335,246.502686 165.68747,243.521984 C170.164768,238.170632 169.451254,230.197119 164.099903,225.701984 C158.748551,221.224686 150.792876,221.939984 146.297741,227.291335 C141.820443,232.642686 142.516119,240.614416 147.86747,245.091714" id="Fill-65" fill="#7D0A8C"></path>
                        <path d="M100.882962,292.236584 C97.3867459,298.285395 99.4559351,306.025232 105.502962,309.505395 C107.5008,310.664854 109.659178,311.198205 111.817557,311.198205 C116.187827,311.198205 120.433232,308.934584 122.769989,304.885395 C126.266205,298.838368 124.197016,291.096746 118.149989,287.618368 C112.085124,284.120368 104.361341,286.191341 100.882962,292.236584" id="Fill-67" fill="#87B91E"></path>
                        <g id="Group-71" transform="translate(66.000000, 354.295135)">
                            <mask id="mask-2" fill="white">
                                <use xlink:href="#path-1"></use>
                            </mask>
                            <g id="Clip-70"></g>
                            <path d="M8.89341081,25.9904432 C10.3204378,26.5077405 11.8009784,26.7574703 13.2280054,26.7574703 C18.3831405,26.7574703 23.2350324,23.5644973 25.1080054,18.4450378 C27.4982757,11.8807135 24.1269243,4.62071351 17.5626,2.23044324 C11.0161135,-0.159827027 3.75611351,3.21152432 1.36584324,9.77584865 C-1.04226486,16.340173 2.34692432,23.5823351 8.89341081,25.9904432" id="Fill-69" fill="#DC0000" mask="url(#mask-2)"></path>
                        </g>
                        <path d="M210.478459,193.504865 C213.814135,193.504865 217.060622,192.149189 219.415216,189.794595 C221.769811,187.44 223.125486,184.193514 223.125486,180.857838 C223.125486,177.54 221.769811,174.275676 219.415216,171.921081 C217.060622,169.566486 213.814135,168.228649 210.478459,168.228649 C207.142784,168.228649 203.896297,169.566486 201.541703,171.921081 C199.187108,174.275676 197.831432,177.54 197.831432,180.857838 C197.831432,184.193514 199.187108,187.44 201.541703,189.794595 C203.896297,192.149189 207.142784,193.504865 210.478459,193.504865" id="Fill-72" fill="#F07D00"></path>
                        <path d="M834.303681,190.061805 C836.890168,190.061805 839.476654,189.080724 841.458438,187.100724 C845.4006,183.140724 845.4006,176.756562 841.438816,172.794778 C837.496654,168.852616 831.09287,168.852616 827.13287,172.812616 C823.192492,176.756562 823.192492,183.1764 827.150708,187.118562 C829.132492,189.080724 831.718978,190.061805 834.303681,190.061805" id="Fill-74" fill="#28055A"></path>
                        <path d="M764.218816,134.44307 C765.984762,135.673881 768.000438,136.26253 769.998276,136.26253 C773.191249,136.26253 776.330708,134.746314 778.294654,131.927935 C781.487627,127.361449 780.363843,121.046854 775.795573,117.853881 C771.211249,114.660908 764.896654,115.784692 761.705465,120.369016 C758.512492,124.953341 759.636276,131.250097 764.218816,134.44307" id="Fill-76" fill="#DC0000"></path>
                        <path d="M888.191789,254.295503 C890.189627,254.295503 892.205303,253.706854 893.971249,252.476043 C898.557357,249.28307 899.663303,242.968476 896.47033,238.385935 C893.277357,233.819449 886.962762,232.693881 882.394492,235.904692 C877.811951,239.097665 876.688168,245.414043 879.898978,249.98053 C881.859357,252.798908 884.998816,254.295503 888.191789,254.295503" id="Fill-78" fill="#F07D00"></path>
                        <path d="M452.342238,51.4614486 C452.645481,51.4614486 452.948724,51.4436108 453.251968,51.4079351 C458.817373,50.9263135 462.920076,46.0209081 462.438454,40.4555027 C461.938995,34.8900973 457.033589,30.7695568 451.468184,31.2690162 C445.902778,31.7684757 441.800076,36.6738811 442.281697,42.2392865 C442.763319,47.5014486 447.169265,51.4614486 452.342238,51.4614486" id="Fill-80" fill="#7D0A8C"></path>
                        <path d="M535.216832,51.3544216 C535.520076,51.3900973 535.805481,51.3900973 536.108724,51.3900973 C541.299535,51.4079351 545.705481,47.4300973 546.171049,42.1679351 C546.650886,36.6025297 542.53213,31.6971243 536.964941,31.2155027 C531.399535,30.7338811 526.511968,34.8365838 526.012508,40.4019892 C525.530886,45.9673946 529.651427,50.8728 535.216832,51.3544216" id="Fill-82" fill="#EB5A87"></path>
                        <path d="M615.95053,65.5715351 C616.824584,65.803427 617.698638,65.9104541 618.574476,65.9104541 C623.033935,65.9104541 627.1188,62.9315351 628.329989,58.4007243 C629.774854,53.0136973 626.564043,47.4661297 621.1788,46.0212649 C615.772151,44.5764 610.244205,47.7872108 608.797557,53.1742378 C607.354476,58.5791027 610.563503,64.1266703 615.95053,65.5715351" id="Fill-84" fill="#2D4B00"></path>
                        <path d="M697.309443,94.4691892 C699.967281,94.4691892 702.571605,93.3810811 704.462416,91.5081081 C706.337173,89.6172973 707.423497,87.012973 707.423497,84.3551351 C707.423497,81.6794595 706.337173,79.0751351 704.462416,77.2021622 C702.571605,75.3113514 699.967281,74.2410811 697.309443,74.2410811 C694.651605,74.2410811 692.029443,75.3113514 690.15647,77.2021622 C688.265659,79.092973 687.195389,81.6972973 687.195389,84.3551351 C687.195389,87.012973 688.265659,89.6172973 690.15647,91.5081081 C692.029443,93.3810811 694.633768,94.4691892 697.309443,94.4691892" id="Fill-86" fill="#37A5D7"></path>
                        <path d="M154.985303,190.454595 C157.571789,190.454595 160.158276,189.473514 162.138276,187.493514 C166.080438,183.533514 166.080438,177.147568 162.120438,173.187568 C158.178276,169.245405 151.774492,169.245405 147.814492,173.205405 C143.87233,177.147568 143.87233,183.551351 147.83233,187.511351 C149.81233,189.473514 152.398816,190.454595 154.985303,190.454595" id="Fill-88" fill="#28055A"></path>
                        <path d="M219.022962,136.726849 C221.0208,136.726849 223.036476,136.120362 224.802422,134.889551 C229.386746,131.696578 230.492692,125.381984 227.299719,120.815497 C224.088908,116.231173 217.774314,115.125227 213.207827,118.3182 C208.641341,121.529011 207.517557,127.825768 210.728368,132.410092 C212.69053,135.210632 215.829989,136.726849 219.022962,136.726849" id="Fill-90" fill="#87B91E"></path>
                        <path d="M291.408908,94.9324378 C292.855557,94.9324378 294.298638,94.6113568 295.689989,93.9691946 C300.738097,91.5967622 302.932151,85.5854108 300.559719,80.5194649 C298.206908,75.4713568 292.175935,73.2773027 287.127827,75.6497351 C282.061881,78.0043297 279.867827,84.0335189 282.240259,89.081627 C283.97053,92.7740595 287.609449,94.9324378 291.408908,94.9324378" id="Fill-92" fill="#2D4B00"></path>
                        <path d="M369.913768,66.1601838 C372.589443,66.1601838 375.191984,65.0720757 377.066741,63.1991027 C378.957551,61.3082919 380.027822,58.7039676 380.027822,56.0461297 C380.027822,53.3704541 378.957551,50.7661297 377.066741,48.8931568 C375.191984,47.0023459 372.589443,45.9320757 369.913768,45.9320757 C367.25593,45.9320757 364.651605,47.0023459 362.760795,48.8931568 C360.886038,50.7661297 359.799714,53.3704541 359.799714,56.0461297 C359.799714,58.7039676 360.886038,61.3082919 362.760795,63.1991027 C364.651605,65.0720757 367.25593,66.1601838 369.913768,66.1601838" id="Fill-94" fill="#DC0000"></path>
                        <path d="M55.3076432,326.040535 C56.6989946,326.682697 58.1438595,326.985941 59.5708865,326.985941 C63.3881838,326.985941 67.0271027,324.827562 68.757373,321.152968 L68.7395351,321.152968 C71.1119676,316.087022 68.9179135,310.073886 63.8519676,307.703238 C58.7860216,305.348643 52.7746703,307.540914 50.4200757,312.606859 C48.0654811,317.674589 50.2416973,323.685941 55.3076432,326.040535" id="Fill-96" fill="#F07D00"></path>
                        <path d="M94.1580973,237.2964 C92.2672865,239.187211 91.1970162,241.793319 91.1970162,244.449373 C91.1970162,247.107211 92.2672865,249.711535 94.1580973,251.602346 C96.0310703,253.475319 98.6353946,254.565211 101.293232,254.565211 C103.968908,254.565211 106.573232,253.475319 108.446205,251.602346 C110.337016,249.711535 111.407286,247.107211 111.407286,244.449373 C111.407286,241.793319 110.337016,239.187211 108.446205,237.2964 C106.573232,235.405589 103.968908,234.335319 101.293232,234.335319 C98.6353946,234.335319 96.0310703,235.405589 94.1580973,237.2964" id="Fill-98" fill="#699B19"></path>
                        <path d="M930.058443,326.985584 C932.734119,326.985584 935.338443,325.897476 937.211416,324.024503 C939.100443,322.133692 940.190335,319.529368 940.190335,316.87153 C940.190335,314.213692 939.100443,311.609368 937.211416,309.718557 C935.338443,307.827746 932.734119,306.757476 930.058443,306.757476 C927.400605,306.757476 924.796281,307.827746 922.903686,309.718557 C921.030714,311.59153 919.962227,314.213692 919.962227,316.87153 C919.962227,319.529368 921.030714,322.133692 922.923308,324.024503 C924.796281,325.897476 927.400605,326.985584 930.058443,326.985584" id="Fill-100" fill="#87B91E"></path>
                        <path d="M891.849973,194.449914 C893.580243,194.449914 895.30873,193.861265 896.717919,192.66613 C899.92873,189.972616 900.358622,185.193859 897.665108,181.981265 C894.951973,178.770454 890.173216,178.360184 886.980243,181.053697 C883.751595,183.747211 883.339541,188.529535 886.033054,191.738562 C887.531432,193.522346 889.691595,194.449914 891.849973,194.449914" id="Fill-102" fill="#37A5D7"></path>
                        <g id="Group-106" transform="translate(973.945946, 334.673514)">
                            <mask id="mask-4" fill="white">
                                <use xlink:href="#path-3"></use>
                            </mask>
                            <g id="Clip-105"></g>
                            <path d="M7.93105946,0.357291892 C5.93322162,0.357291892 3.97105946,1.15999459 2.56187027,2.58702162 C1.15268108,3.99621081 0.349978378,5.94053514 0.349978378,7.93837297 C0.349978378,9.93621081 1.15268108,11.8805351 2.56187027,13.3075622 C3.97105946,14.7167514 5.93322162,15.5194541 7.93105946,15.5194541 C9.9288973,15.5194541 11.8732216,14.7167514 13.3002486,13.3075622 C14.7094378,11.8805351 15.5121405,9.93621081 15.5121405,7.93837297 C15.5121405,5.94053514 14.7094378,3.99621081 13.3002486,2.58702162 C11.8910595,1.15999459 9.9288973,0.357291892 7.93105946,0.357291892" id="Fill-104" fill="#DC0000" mask="url(#mask-4)"></path>
                        </g>
                        <path d="M583.878989,16.9991027 C584.324935,17.0882919 584.770881,17.1239676 585.198989,17.1239676 C588.82007,17.1239676 592.013043,14.5196432 592.673043,10.8450486 C593.404395,6.72450811 590.63953,2.78234595 586.517205,2.06883243 C582.380611,1.33748108 578.456286,4.08450811 577.724935,8.22288649 C576.993584,12.343427 579.758449,16.2855892 583.878989,16.9991027" id="Fill-107" fill="#87B91E"></path>
                        <path d="M754.124027,78.699827 C756.120081,78.699827 758.066189,77.8971243 759.475378,76.4879351 C760.902405,75.0787459 761.705108,73.1165838 761.705108,71.1187459 C761.705108,69.1209081 760.902405,67.1765838 759.475378,65.7673946 C758.066189,64.3403676 756.120081,63.5376649 754.124027,63.5376649 C752.126189,63.5376649 750.162243,64.3403676 748.753054,65.7673946 C747.343865,67.1765838 746.523324,69.1209081 746.523324,71.1187459 C746.523324,73.1165838 747.343865,75.0787459 748.753054,76.4879351 C750.162243,77.8971243 752.126189,78.699827 754.124027,78.699827" id="Fill-109" fill="#F07D00"></path>
                        <path d="M235.415757,78.7895514 C236.717919,78.7895514 238.020081,78.4506324 239.215216,77.7549568 C242.836297,75.6679297 244.067108,71.0300919 241.980081,67.391173 C239.875216,63.7700919 235.237378,62.5392811 231.616297,64.6441459 C227.977378,66.731173 226.746568,71.3690108 228.851432,75.0079297 C230.260622,77.4338757 232.793595,78.7895514 235.415757,78.7895514" id="Fill-111" fill="#EB5A87"></path>
                        <g id="Group-115" transform="translate(396.000000, 1.105946)">
                            <mask id="mask-6" fill="white">
                                <use xlink:href="#path-5"></use>
                            </mask>
                            <g id="Clip-114"></g>
                            <path d="M9.35683784,15.8574811 C11.3546757,15.8574811 13.3168378,15.0369405 14.7278108,13.6277514 C16.1352162,12.2185622 16.9379189,10.2742378 16.9379189,8.2764 C16.9379189,6.27856216 16.1352162,4.3164 14.7278108,2.90721081 C13.3168378,1.49802162 11.3546757,0.677481081 9.35683784,0.677481081 C7.359,0.677481081 5.41645946,1.49802162 4.00548649,2.90721081 C2.57845946,4.3164 1.77575676,6.27856216 1.77575676,8.2764 C1.77575676,10.2742378 2.57845946,12.2185622 4.00548649,13.6277514 C5.41645946,15.0369405 7.359,15.8574811 9.35683784,15.8574811" id="Fill-113" fill="#F07D00" mask="url(#mask-6)"></path>
                        </g>
                        <g id="Group-118" transform="translate(0.000000, 334.673514)">
                            <mask id="mask-8" fill="white">
                                <use xlink:href="#path-7"></use>
                            </mask>
                            <g id="Clip-117"></g>
                            <path d="M5.00458378,15.6082865 C5.8608,15.9115297 6.73485405,16.0720703 7.59107027,16.0720703 C10.6948541,16.0720703 13.6024216,14.1455838 14.7262054,11.0596378 C16.1532324,7.11747568 14.1197189,2.78288108 10.1775568,1.33801622 C6.23539459,-0.0890108108 1.88296216,1.9445027 0.455935135,5.88666486 C-0.971091892,9.82882703 1.06242162,14.1812595 5.00458378,15.6082865" id="Fill-116" fill="#2D4B00" mask="url(#mask-8)"></path>
                        </g>
                        <path d="M97.0836811,195.306843 C99.0993568,195.306843 101.043681,194.504141 102.45287,193.093168 C103.862059,191.685762 104.6826,189.7236 104.6826,187.725762 C104.6826,185.727924 103.862059,183.7836 102.45287,182.374411 C101.043681,180.947384 99.0993568,180.144681 97.0836811,180.144681 C95.0858432,180.144681 93.1415189,180.947384 91.7323297,182.374411 C90.3231405,183.7836 89.5026,185.727924 89.5026,187.725762 C89.5026,189.7236 90.3231405,191.685762 91.7323297,193.093168 C93.1415189,194.504141 95.0858432,195.306843 97.0836811,195.306843" id="Fill-119" fill="#7D0A8C"></path>
                    </g>
                </g>
            </g>
        </g>
    </g>
</svg>